<svg width="548" height="398" viewBox="0 0 548 398" fill="none" xmlns="http://www.w3.org/2000/svg">
<g clip-path="url(#clip0)">
<path fill-rule="evenodd" clip-rule="evenodd" d="M62.673 237.115C62.75 237.193 62.789 237.27 62.789 237.348C62.867 237.348 62.944 237.386 63.021 237.464C65.111 239.786 67.473 241.954 70.105 243.967C72.737 245.902 75.757 246.947 79.163 247.102C79.241 247.102 79.318 247.142 79.395 247.219H79.744C79.821 247.219 79.899 247.257 79.976 247.335H81.253C81.641 247.257 81.989 247.18 82.299 247.102C83.54 246.869 84.7235 246.396 85.783 245.709C86.943 245.012 87.834 244.16 88.453 243.154L88.686 242.689L88.918 242.225C89.073 241.683 89.189 241.18 89.267 240.715C89.344 240.251 89.383 239.825 89.383 239.438C89.383 237.348 88.453 235.606 86.596 234.212C84.8645 232.769 82.9011 231.631 80.789 230.844C79.9947 230.551 79.1794 230.318 78.35 230.148C77.622 229.928 76.8862 229.734 76.144 229.567H75.912C75.834 229.49 75.757 229.451 75.68 229.451C71.9145 228.533 68.3115 227.045 64.996 225.038C61.666 222.948 59.383 219.967 58.144 216.096C57.9014 215.286 57.669 214.473 57.447 213.657C57.2881 212.773 57.172 211.882 57.099 210.987C57.0277 210.721 56.9887 210.448 56.983 210.173V207.386C57.06 206.767 57.176 206.148 57.331 205.528C57.5714 203.947 57.9602 202.391 58.492 200.883C59.034 199.335 59.731 197.941 60.582 196.703C63.06 192.599 66.234 189.657 70.105 187.877C74.054 186.096 78.157 185.206 82.415 185.206C83.422 185.206 84.428 185.283 85.435 185.438C86.5225 185.516 87.6068 185.632 88.686 185.786C91.51 186.261 94.2744 187.04 96.931 188.109C99.718 189.193 102.273 190.47 104.596 191.941L98.209 206.225C96.1246 204.681 93.9096 203.321 91.589 202.161C89.267 200.999 86.751 200.419 84.041 200.419H83.111C81.331 200.651 79.667 201.464 78.118 202.857C76.57 204.173 75.796 205.606 75.796 207.154V207.851C75.873 208.083 75.989 208.315 76.144 208.548C76.299 209.09 76.57 209.593 76.957 210.058C77.344 210.522 77.77 210.948 78.234 211.335C79.086 212.032 80.324 212.69 81.951 213.309C83.576 213.851 85.28 214.393 87.061 214.935C88.531 215.322 89.963 215.709 91.357 216.096C92.751 216.406 93.912 216.716 94.841 217.026C99.176 218.574 102.428 221.167 104.596 224.806C106.763 228.367 107.886 232.161 107.963 236.186V236.767C107.963 237.232 107.925 237.697 107.847 238.161V239.438C107.383 243.464 106.067 247.296 103.899 250.935C101.809 254.574 98.983 257.361 95.422 259.297C94.1002 259.918 92.7429 260.461 91.357 260.922C89.973 261.307 88.5792 261.656 87.177 261.968C86.0271 262.199 84.8633 262.354 83.693 262.432C82.5767 262.584 81.4516 262.661 80.325 262.664H79.047C74.402 262.51 69.835 261.503 65.344 259.644C60.854 257.709 56.867 255.154 53.384 251.98L62.673 237.115ZM278.567 190.869C272.219 194.353 267.264 199.386 263.703 205.966L263.702 205.965C262.679 207.861 261.824 209.842 261.147 211.887C260.462 213.859 259.919 215.877 259.522 217.926C259.289 219.011 259.134 220.055 259.057 221.061C258.98 222.068 258.941 223.075 258.941 224.081C258.941 230.894 260.799 237.475 264.515 243.823C268.231 250.094 273.341 254.933 279.844 258.339C282.212 259.565 284.704 260.538 287.276 261.242C289.864 261.931 292.506 262.397 295.173 262.636H296.683C297.222 262.713 297.765 262.752 298.309 262.752C305.895 262.752 313.135 260.7 320.025 256.597C326.915 252.417 331.986 246.572 335.237 239.062C335.845 237.55 336.349 235.998 336.747 234.417C337.205 232.823 337.516 231.191 337.676 229.54C337.831 228.765 337.909 227.991 337.909 227.217C337.986 226.365 338.025 225.552 338.025 224.778C338.025 218.354 336.515 212.198 333.496 206.314C330.477 200.353 326.219 195.592 320.722 192.03C318.173 190.407 315.445 189.082 312.593 188.082C309.849 187.086 307.007 186.386 304.115 185.992C303.186 185.914 302.219 185.837 301.212 185.759C300.283 185.682 299.354 185.643 298.425 185.643C291.535 185.643 284.915 187.385 278.567 190.869ZM351.712 260.95V186.976H371.222L399.093 224.95C399.813 226.075 400.472 227.238 401.067 228.434C401.771 229.608 402.429 230.809 403.041 232.034L404.435 235.054C404.899 236.06 405.364 237.027 405.828 237.956C405.755 237.138 405.639 236.324 405.48 235.518C405.403 234.744 405.325 233.931 405.248 233.079C405.09 231.495 404.974 229.908 404.899 228.318C404.819 226.655 404.78 224.989 404.783 223.324V186.976H424.176V260.95H404.783L376.68 222.744C375.906 221.815 375.17 220.731 374.474 219.493C373.77 218.161 373.111 216.805 372.5 215.428C372.05 214.453 371.586 213.485 371.106 212.525C370.747 211.585 370.359 210.655 369.945 209.738C370.332 212.138 370.642 214.577 370.874 217.054C371.106 219.531 371.216 222.009 371.222 224.486V260.95H351.712ZM459.172 186.976L433.74 260.95H453.714L457.546 247.595H486.114L489.83 260.95H510.036L484.372 186.976H459.172ZM461.844 233.311L469.392 208.808C469.699 207.733 469.971 206.649 470.205 205.556C470.521 204.445 470.792 203.322 471.017 202.189C471.094 202.034 471.134 201.918 471.134 201.84C471.134 201.686 471.172 201.531 471.25 201.376C471.327 200.911 471.405 200.485 471.482 200.098C471.637 199.634 471.753 199.208 471.83 198.821C471.908 199.208 471.985 199.634 472.063 200.098C472.14 200.486 472.256 200.911 472.411 201.376C472.653 202.659 472.924 203.937 473.224 205.208C473.6 206.412 473.987 207.612 474.385 208.808L481.934 233.311H461.844ZM316.542 232.559C316.774 231.785 316.968 230.972 317.122 230.12C317.355 229.269 317.51 228.417 317.587 227.565C317.665 227.024 317.703 226.482 317.703 225.94C317.781 225.398 317.819 224.894 317.819 224.43C317.819 223.963 317.78 223.497 317.703 223.036V221.643C317.316 218.313 316.31 215.101 314.683 212.004C313.058 208.907 310.813 206.507 307.948 204.804C307.174 204.417 306.4 204.069 305.626 203.759C304.852 203.449 304.077 203.179 303.303 202.946C302.535 202.792 301.76 202.676 300.981 202.598C300.216 202.444 299.438 202.366 298.658 202.365C294.71 202.365 291.071 203.605 287.742 206.082C284.413 208.559 282.09 211.849 280.774 215.952L280.542 216.417V216.881C280.303 217.604 280.109 218.341 279.962 219.088C279.807 219.785 279.652 220.52 279.497 221.294L279.265 222.92V225.359C279.265 225.591 279.303 225.862 279.381 226.172C279.613 230.275 280.851 234.185 283.097 237.901C285.419 241.539 288.594 243.939 292.619 245.101L294.013 245.565C294.477 245.643 294.981 245.72 295.523 245.797L296.916 246.03H298.31C302.413 246.03 306.09 244.83 309.342 242.43C312.671 239.952 315.071 236.662 316.542 232.559ZM222.541 259.092C226.799 258.162 230.747 256.459 234.386 253.982H234.387C238.877 250.73 242.322 246.55 244.722 241.44C247.122 236.33 248.438 231.027 248.671 225.53V222.627C248.671 222.162 248.632 221.698 248.554 221.234C248.245 215.968 246.89 210.859 244.49 205.904C242.09 200.95 238.722 196.963 234.387 193.944C231.023 191.485 227.189 189.746 223.123 188.834C219.097 187.905 214.993 187.324 210.813 187.092C209.652 187.014 208.452 186.976 207.213 186.976H182.129V260.95H205.935C207.175 260.95 208.414 260.911 209.651 260.834C213.986 260.602 218.283 260.022 222.541 259.092ZM201.986 244.343C202.218 244.343 202.451 244.382 202.683 244.459H203.496C203.806 244.459 204.076 244.499 204.309 244.576H207.444C208.296 244.498 209.109 244.421 209.883 244.343C211.887 244.19 213.87 243.84 215.805 243.298C217.741 242.756 219.483 241.943 221.031 240.859C223.509 239.079 225.328 236.679 226.489 233.659C227.721 230.595 228.352 227.323 228.347 224.021V223.091C228.347 222.782 228.309 222.472 228.231 222.163C228.079 219.23 227.369 216.353 226.141 213.685C224.902 210.898 223.199 208.692 221.031 207.065C219.441 205.767 217.574 204.853 215.573 204.395C213.592 203.924 211.569 203.652 209.534 203.582H201.986V244.343ZM122.076 186.975V260.949H167.482V244.343H141.934V231.801H165.973V216.007H141.934V203.117H167.482V186.975H122.076ZM404.423 383.358C404.31 383.649 404.253 383.941 404.253 384.235C404.253 384.953 404.5 385.504 404.993 385.884C405.488 386.268 406.063 386.458 406.713 386.458C406.689 386.839 406.589 387.176 406.409 387.468C406.23 387.759 406.001 388.016 405.733 388.228C405.466 388.441 405.179 388.621 404.876 388.767C404.572 388.912 404.298 389.029 404.048 389.119L405.398 391.109C405.431 391.093 405.464 391.077 405.496 391.062L405.526 391.048L405.582 391.022C405.644 390.993 405.706 390.966 405.768 390.939C405.974 390.851 406.214 390.731 406.494 390.587C406.802 390.424 407.1 390.244 407.387 390.047C407.689 389.844 407.972 389.613 408.23 389.356C408.783 388.807 409.223 388.154 409.526 387.436C409.83 386.717 409.981 385.928 409.981 385.078C409.981 384.627 409.915 384.201 409.779 383.797C409.644 383.393 409.454 383.045 409.207 382.753C408.916 382.436 408.56 382.196 408.146 382.026C407.73 381.858 407.298 381.774 406.848 381.774C406.443 381.774 406.078 381.848 405.753 381.994C405.443 382.129 405.162 382.323 404.926 382.566C404.703 382.802 404.535 383.065 404.423 383.358ZM412.09 384.235C412.09 383.942 412.147 383.649 412.257 383.358C412.37 383.065 412.539 382.802 412.763 382.566C412.99 382.331 413.263 382.138 413.588 381.994C413.915 381.849 414.278 381.774 414.684 381.774C415.134 381.774 415.567 381.858 415.981 382.026C416.398 382.196 416.751 382.436 417.042 382.753C417.292 383.045 417.482 383.393 417.616 383.797C417.75 384.202 417.818 384.628 417.818 385.078C417.827 385.887 417.672 386.689 417.363 387.436C417.059 388.154 416.618 388.806 416.065 389.356C415.806 389.613 415.523 389.844 415.22 390.047C414.934 390.246 414.636 390.426 414.327 390.587C414.047 390.732 413.807 390.851 413.602 390.939C413.478 390.993 413.354 391.05 413.232 391.109L411.884 389.119C412.131 389.03 412.404 388.912 412.709 388.767C413.013 388.621 413.299 388.441 413.569 388.228C413.837 388.014 414.063 387.761 414.242 387.468C414.423 387.176 414.524 386.84 414.546 386.458C413.924 386.469 413.318 386.266 412.827 385.884C412.337 385.504 412.09 384.953 412.09 384.236V384.235ZM147.36 326.394C147.473 326.103 147.53 325.81 147.53 325.519H147.531C147.531 324.8 147.283 324.251 146.791 323.87C146.297 323.488 145.723 323.298 145.073 323.298C145.096 322.915 145.196 322.577 145.376 322.285C145.556 321.993 145.779 321.74 146.049 321.527C146.319 321.313 146.606 321.134 146.909 320.988C147.178 320.858 147.454 320.74 147.734 320.636L146.386 318.648C146.342 318.67 146.219 318.728 146.016 318.815C145.813 318.904 145.571 319.023 145.291 319.167C144.983 319.329 144.685 319.509 144.398 319.707C144.095 319.909 143.812 320.14 143.554 320.397C143.001 320.947 142.56 321.599 142.257 322.317C141.954 323.037 141.802 323.825 141.802 324.677C141.8 325.112 141.868 325.544 142.004 325.957C142.126 326.339 142.321 326.694 142.577 327.002C142.872 327.319 143.234 327.567 143.637 327.727C144.049 327.895 144.489 327.98 144.934 327.979C145.656 327.989 146.351 327.703 146.857 327.187C147.076 326.959 147.247 326.689 147.36 326.394ZM139.694 325.519C139.689 326.141 139.449 326.738 139.021 327.189C138.785 327.431 138.505 327.625 138.195 327.76C137.869 327.906 137.503 327.98 137.099 327.98C136.654 327.981 136.213 327.896 135.801 327.728C135.398 327.567 135.036 327.319 134.741 327.002C134.484 326.694 134.289 326.339 134.168 325.957C134.032 325.544 133.963 325.112 133.966 324.677C133.966 323.825 134.116 323.037 134.421 322.317C134.724 321.599 135.165 320.946 135.718 320.397C135.965 320.149 136.245 319.92 136.561 319.706C136.875 319.494 137.173 319.313 137.454 319.166C137.734 319.022 137.974 318.904 138.178 318.816L138.235 318.79C138.404 318.714 138.509 318.667 138.55 318.646L139.897 320.634C139.649 320.724 139.375 320.842 139.071 320.987C138.768 321.134 138.481 321.313 138.214 321.525C137.946 321.737 137.718 321.994 137.538 322.284C137.359 322.576 137.258 322.914 137.236 323.296C137.886 323.296 138.46 323.486 138.954 323.869C139.447 324.251 139.694 324.799 139.694 325.519ZM388.859 382.393H385.044L396.925 361.757H400.701L388.859 382.393ZM384.863 383.881C383.627 383.881 382.682 384.861 382.682 386.099C382.682 387.337 383.628 388.279 384.863 388.279C386.095 388.279 387.08 387.335 387.08 386.099C387.08 384.863 386.095 383.881 384.863 383.881ZM359.601 376.466L358.511 378.354C359.346 380.825 362.65 379.445 363.78 377.483L365.595 374.359C366.94 372.069 363.961 370.398 359.601 376.466ZM383.603 381.334C383.385 380.754 382.731 380.171 382.186 380.027L381.931 380.319C380.602 381.879 379.075 383.258 377.389 384.423C377.859 383.012 378.106 381.304 378.372 379.458C378.784 376.599 379.244 373.409 380.657 370.473L377.822 368.946C377.544 369.328 377.207 369.799 376.821 370.338L376.82 370.339L376.82 370.339C375.043 372.822 372.236 376.743 369.43 380.027C369.436 380.037 369.446 380.045 369.451 380.052C369.445 380.049 369.438 380.045 369.431 380.041C369.423 380.035 369.414 380.03 369.406 380.027L369.153 380.319C366.426 383.479 363.776 385.985 362.103 385.985C361.269 385.985 360.469 385.149 360.469 383.442V381.88C363.121 382.207 365.919 380.462 367.699 377.376L368.715 375.633C372.237 369.603 366.498 367.603 362.647 371.129L368.022 361.792H364.243L353.468 380.487C353.261 380.303 353.029 380.15 352.779 380.03L352.523 380.322C349.8 383.482 346.312 385.988 343.66 385.988C341.335 385.988 339.955 384.535 341.699 381.484L345.583 374.727C347.763 370.985 351.615 371.603 349.361 375.527L348.817 376.471H351.907L352.452 375.527C354.486 372.039 352.523 369.423 349.437 369.423C346.386 369.423 343.95 371.023 342.352 373.783L338.634 380.163C338.614 380.151 338.594 380.139 338.575 380.127C338.515 380.091 338.456 380.055 338.401 380.031L338.146 380.323C335.422 383.483 332.771 385.989 331.099 385.989C330.263 385.989 329.793 385.409 330.663 383.919L338.729 369.786H334.949L328.23 381.52C325.357 384.135 323.145 385.588 322.416 385.262C321.54 384.892 322.289 383.646 322.78 382.83C322.818 382.766 322.855 382.705 322.889 382.647L330.263 369.786H326.485L319.147 382.481C318.641 382.942 317.838 383.372 317.114 383.761C316.67 383.999 316.256 384.221 315.957 384.425C316.428 383.013 316.674 381.305 316.941 379.458V379.458L316.941 379.457C317.353 376.599 317.814 373.41 319.226 370.475L316.394 368.948C314.831 371.091 306.111 382.646 302.696 386.641C303.021 387.113 303.568 387.586 304.112 387.949C306.255 385.479 313.45 376.215 314.794 374.435C314.293 375.753 314.051 377.425 313.814 379.063C313.345 382.3 312.895 385.407 310.506 385.407C309.236 385.407 308.726 384.025 308.726 384.025L306.365 385.261C306.365 385.261 307.055 388.311 310.505 388.311C310.839 388.311 311.141 388.281 311.469 388.248L311.469 388.248L311.561 388.239C311.568 388.239 311.574 388.238 311.581 388.236C311.587 388.234 311.593 388.231 311.599 388.228C311.604 388.226 311.609 388.224 311.614 388.221L311.614 388.221C311.625 388.215 311.635 388.21 311.646 388.207L311.651 388.205L311.654 388.204C311.659 388.204 311.663 388.203 311.667 388.203C313.587 387.949 316.245 387.065 318.027 385.833C318.015 387.37 318.943 388.311 320.527 388.311C322.595 388.311 324.922 386.422 326.737 384.679C326.376 386.714 327.572 388.311 329.972 388.311C332.318 388.311 334.931 386.425 337.409 383.948C337.443 386.458 339.377 388.311 342.535 388.311C345.601 388.311 348.649 386.598 351.276 384.295L349.171 387.949H352.987L357.31 380.429V383.443C357.31 386.675 357.927 388.311 360.98 388.311C364.103 388.311 367.701 384.97 370.825 381.336C370.823 381.333 370.821 381.33 370.818 381.326C370.812 381.319 370.806 381.311 370.805 381.302C370.819 381.314 370.836 381.325 370.852 381.336C372.565 379.362 374.117 377.271 375.355 375.602C375.666 375.183 375.958 374.79 376.227 374.432C375.727 375.75 375.486 377.42 375.249 379.058C374.78 382.296 374.33 385.405 371.94 385.405C370.67 385.405 370.16 384.023 370.16 384.023L367.798 385.259C367.798 385.259 368.489 388.309 371.94 388.309C372.268 388.309 372.566 388.28 372.892 388.247L372.996 388.237C373.012 388.237 373.027 388.23 373.043 388.222C373.062 388.212 373.081 388.202 373.101 388.202C376.954 387.69 380.769 384.64 383.602 381.332L383.603 381.334ZM268.829 380.248H269.012L271.772 375.526C274.06 371.601 270.428 369.821 267.775 374.326L265.959 377.414L263.089 382.391C260.836 386.315 265.16 386.895 266.939 383.845L266.976 383.772C266.758 383.41 266.613 382.975 266.613 382.503C266.613 381.265 267.594 380.248 268.829 380.248ZM243.582 394.379C242.782 395.796 241.51 395.579 241.51 394.563C241.51 393.583 242.419 392.457 245.325 391.329L243.582 394.379ZM208.737 385.952C210.299 385.952 212.552 384.244 214.84 380.649L217.781 375.489C219.635 372.073 215.603 371.166 213.568 374.688L208.301 383.881C207.43 385.372 207.902 385.952 208.737 385.952ZM202.786 365.899C203.912 363.972 205.148 363.137 206.201 363.137C207.619 363.137 208.272 364.081 208.272 365.462C208.272 368.986 203.908 376.295 198.1 375.343H197.337L202.786 365.899ZM295.309 380.285L295.563 379.993L295.564 379.994C296.074 380.212 296.727 380.794 296.982 381.305C293.856 384.938 290.262 388.28 287.136 388.28C284.083 388.28 282.958 385.703 284.556 382.904L289.46 374.366C291.096 371.568 288.516 370.625 282.739 377.855L276.963 387.918H273.148L275.688 383.524C274.002 384.454 272.134 384.974 270.754 384.974H269.919C265.681 390.332 258.653 389.129 259.173 383.852C255.921 387.071 252.807 389.03 249.648 390.024L246.742 395.002C244.02 399.652 238.46 398.888 238.46 395.255C238.46 392.423 241.657 390.314 246.78 388.79L248.851 385.23C247.142 386.754 245.073 388.28 243.256 388.28C241.374 388.28 240.415 386.948 240.868 384.87C238.694 386.86 236.461 388.28 234.428 388.28C231.377 388.28 230.251 385.704 231.849 382.904L236.753 374.37C238.388 371.571 235.808 370.628 230.031 377.858L224.255 387.921H220.441L221.833 385.51C219.891 387.159 217.923 388.283 216.113 388.283C214.189 388.283 213.025 387.268 212.845 385.814C211.028 387.303 209.139 388.283 207.613 388.283C204.938 388.283 203.742 386.302 204.565 383.928L204.341 384.141L204.341 384.141C201.851 386.51 199.988 388.283 195.884 388.283C190.544 388.283 188.983 383.199 191.634 378.621L192.759 376.657C189.709 375.059 188.001 372.152 188.001 369.139C188.001 366.593 189.198 364.017 191.888 362.089L193.123 364.307C191.489 365.577 190.689 367.321 190.689 369.064C190.689 371.172 191.853 373.279 194.069 374.442L199.955 364.305C201.661 361.327 204.132 359.873 206.203 359.873C208.999 359.873 211.216 362.088 211.216 365.503C211.216 366.993 210.743 368.736 209.69 370.589C206.711 375.784 202.133 377.856 198.1 377.856C197.339 377.856 196.648 377.779 195.958 377.672L194.903 379.524C192.653 383.376 194.214 385.955 196.793 385.955C200.468 385.955 202.552 383.538 205.206 380.459L205.353 380.288L205.607 379.996C205.878 380.069 206.175 380.251 206.435 380.484L210.338 373.748C211.934 370.985 214.77 369.388 216.803 369.388C219.274 369.388 220.909 371.604 220.764 373.202H222.907L216.803 383.882C215.932 385.374 216.404 385.954 217.239 385.954C218.912 385.954 221.564 383.447 224.287 380.287L224.541 379.995C224.666 380.053 224.786 380.12 224.9 380.197L230.938 369.752H234.718L233.301 372.221C235.189 370.259 236.897 369.387 238.532 369.387C240.639 369.387 242.201 371.459 240.566 374.329L235.117 383.882C234.246 385.374 234.718 385.954 235.553 385.954C237.225 385.954 239.876 383.447 242.601 380.287L242.855 379.995C242.97 380.049 243.081 380.111 243.186 380.182L249.214 369.752H252.992L245.617 382.612L245.57 382.692L245.506 382.798C245.016 383.616 244.271 384.859 245.145 385.228C245.871 385.554 248.124 384.065 251.031 381.378L257.714 369.752H261.493L251.138 387.482C254.116 386.207 256.768 383.882 259.893 380.287L260.147 379.996C260.266 380.05 260.38 380.114 260.489 380.186L262.109 377.416L263.961 374.183C266.142 370.405 268.393 369.243 271.3 369.243C274.862 369.243 276.968 372.982 274.68 376.944L271.12 383.084C273.009 383.047 275.117 382.137 276.823 380.285L277.078 379.993C277.248 380.073 277.41 380.17 277.56 380.283L283.648 369.75H287.427L286.01 372.219C287.9 370.257 289.605 369.386 291.241 369.386C293.346 369.386 294.912 371.457 293.276 374.327L287.826 383.88C286.955 385.372 287.426 385.952 288.262 385.952C289.934 385.952 292.587 383.445 295.309 380.285ZM414.194 344.421C411.904 348.162 409.579 349.942 407.982 349.942C407.147 349.942 406.675 349.362 407.545 347.872L412.812 338.679C414.847 335.155 418.879 336.064 417.026 339.479H417.061L414.194 344.421ZM371.903 349.942C373.464 349.942 375.717 348.234 378.007 344.64L380.948 339.479C382.8 336.064 378.768 335.155 376.734 338.679L371.466 347.872C370.596 349.362 371.067 349.942 371.903 349.942ZM338.09 358.37C337.293 359.787 336.02 359.57 336.02 358.554C336.02 357.573 336.892 356.447 339.799 355.32L338.09 358.37ZM349.535 327.129C348.48 327.129 347.245 327.963 346.118 329.889L340.67 339.334H341.433C351.06 341.564 355.529 327.129 349.535 327.129ZM423.782 343.986L423.527 344.276C420.807 347.436 418.153 349.943 416.48 349.943C415.645 349.943 415.173 349.363 416.043 347.872L428.832 325.748H425.053L419.496 335.339C418.842 334.285 417.606 333.377 416.043 333.377C414.008 333.377 411.176 334.976 409.577 337.736L405.879 344.116C405.866 344.109 405.853 344.101 405.84 344.093L405.815 344.078C405.757 344.043 405.699 344.008 405.645 343.984L405.39 344.276C402.667 347.436 400.39 349.942 398.718 349.942C397.881 349.942 397.411 349.362 398.28 347.872L403.73 338.317C405.367 335.447 403.802 333.375 401.696 333.375C400.06 333.375 398.356 334.246 396.464 336.21L397.881 333.74H394.102L388.065 344.187C387.95 344.11 387.83 344.042 387.705 343.984L387.449 344.276C384.726 347.436 382.075 349.942 380.403 349.942C379.568 349.942 379.097 349.362 379.967 347.872L386.07 337.19H383.926C384.072 335.592 382.438 333.375 379.966 333.375C377.931 333.375 375.096 334.974 373.498 337.733L369.846 344.039L369.64 344.273C366.918 347.432 363.89 349.938 362.22 349.938C361.383 349.938 360.913 349.358 361.783 347.868L365.561 341.257C366.868 338.967 366.25 337.624 365.016 336.134L362.91 333.59C362.365 332.9 362.365 332.137 363.128 331.41L361.166 329.267C359.022 331.194 358.841 333.336 360.184 335.08L360.513 335.516L360.379 335.705L360.379 335.706C358.721 338.048 356.523 341.153 354.116 343.981C354.157 344.04 354.202 344.098 354.25 344.156C354.29 344.204 354.331 344.253 354.374 344.301C351.261 347.881 348.615 350.196 345.644 351.463L350.439 343.253H346.661L346.262 343.908C344.264 347.432 341.974 349.939 339.032 349.939C336.452 349.939 335.982 347.36 338.232 343.509L339.287 341.657C339.995 341.774 340.711 341.834 341.429 341.838C354.872 341.838 361.375 323.856 349.533 323.856C347.461 323.856 344.989 325.31 343.283 328.288L337.398 338.423C335.182 337.262 334.02 335.155 334.02 333.048C334.02 331.305 334.82 329.56 336.452 328.29L335.219 326.073C332.529 327.999 331.331 330.577 331.331 333.12C331.331 336.136 333.04 339.042 336.091 340.64L334.964 342.603C332.312 347.181 332.784 352.266 338.126 352.266C339.724 352.266 341.067 351.794 342.231 351.066L341.248 352.776C336.128 354.336 332.966 356.407 332.966 359.241C332.966 362.873 338.526 363.637 341.248 358.987L344.155 354.01C348.08 352.775 351.931 350.087 356.073 345.291C356.006 345.165 355.927 345.046 355.837 344.936C357.515 342.965 358.939 341.062 361.787 337.19L362.294 337.809C362.767 338.425 362.948 339.189 362.512 339.953L358.515 346.89C356.916 349.685 358.043 352.264 361.095 352.264C362.994 352.264 365.443 351.025 367.48 349.24C367.436 350.978 368.624 352.264 370.779 352.264C372.304 352.264 374.194 351.284 376.009 349.794C376.192 351.248 377.356 352.264 379.279 352.264C381.089 352.264 383.056 351.139 384.999 349.49L383.607 351.902H387.42L393.197 341.837C398.974 334.608 401.554 335.553 399.917 338.35L395.014 346.888C393.417 349.686 394.541 352.264 397.592 352.264C399.602 352.264 401.428 350.88 403.574 348.931C403.374 350.824 404.578 352.264 406.856 352.264C408.381 352.264 410.27 351.284 412.088 349.794C412.27 351.249 413.433 352.264 415.357 352.264C418.482 352.264 422.077 348.923 425.202 345.288C424.946 344.784 424.293 344.203 423.782 343.986ZM315.281 339.48C317.535 335.556 313.682 334.939 311.502 338.681L309.068 342.931C310.484 343.439 312.919 343.513 314.736 340.424L315.281 339.48ZM308.451 352.268C312.738 352.268 316.991 348.927 320.113 345.293C319.86 344.783 319.205 344.203 318.696 343.985L318.443 344.277C315.717 347.437 312.23 349.943 309.576 349.943C307.251 349.943 305.871 348.49 307.614 345.438L307.977 344.785C310.412 345.801 314.989 345.33 317.823 340.425L318.368 339.481C320.403 335.992 318.441 333.377 315.352 333.377C312.302 333.377 309.868 334.975 308.269 337.736L304.59 344.049C304.552 344.029 304.514 344.001 304.478 343.985L304.223 344.277C301.499 347.437 298.848 349.943 297.176 349.943C296.34 349.943 295.87 349.363 296.739 347.872L302.189 338.317C303.824 335.447 302.261 333.375 300.153 333.375C298.518 333.375 296.774 334.284 294.887 336.246L300.917 325.746H297.139L286.483 344.236C286.348 344.138 286.203 344.053 286.051 343.984L285.796 344.275C283.071 347.436 280.42 349.942 278.748 349.942C277.913 349.942 277.441 349.362 278.311 347.872L286.413 333.738H289.503L290.593 331.921H287.468L291.028 325.746H287.25L283.69 331.921H280.275L279.185 333.738H282.635L275.042 346.891C273.444 349.69 274.57 352.268 277.621 352.268C279.499 352.268 281.547 351.055 283.561 349.304L282.062 351.904H285.877L291.617 341.912C297.43 334.61 300.01 335.555 298.375 338.352L293.47 346.89C291.872 349.688 292.998 352.266 296.05 352.266C298.346 352.266 300.896 350.461 303.326 348.061C303.436 350.492 305.359 352.268 308.451 352.268ZM184.756 339.479C187.01 335.555 183.16 334.938 180.98 338.68L178.545 342.929C179.961 343.438 182.397 343.511 184.212 340.423L184.756 339.479ZM204.099 347.871L209.367 338.68C211.401 335.154 215.434 336.063 213.58 339.479L210.638 344.638C208.35 348.233 206.095 349.942 204.534 349.942C203.7 349.942 203.227 349.361 204.099 347.872V347.871ZM261.859 339.479C264.113 335.555 260.263 334.938 258.083 338.68L255.648 342.929C257.064 343.437 259.499 343.511 261.314 340.423L261.859 339.479ZM200.275 348.206C199.648 350.446 200.845 352.266 203.409 352.266C204.934 352.266 206.824 351.286 208.639 349.797C208.822 351.25 209.985 352.267 211.909 352.267C213.922 352.267 216.127 350.877 218.278 348.921C217.86 350.963 218.817 352.267 220.678 352.267C222.751 352.267 225.076 350.377 226.891 348.633C226.527 350.669 227.728 352.267 230.125 352.267C233.25 352.267 236.845 348.925 239.97 345.291C239.955 345.262 239.935 345.232 239.914 345.203C239.899 345.182 239.883 345.161 239.87 345.14C241.51 343.232 242.998 341.233 244.2 339.618L244.2 339.618L244.2 339.617L244.201 339.617L244.201 339.616C244.529 339.175 244.836 338.764 245.118 338.39C244.617 339.708 244.375 341.379 244.138 343.018V343.018C243.669 346.254 243.219 349.362 240.83 349.362C239.56 349.362 239.05 347.98 239.05 347.98L236.687 349.215C236.687 349.215 237.377 352.267 240.829 352.267C241.153 352.267 241.447 352.238 241.766 352.206L241.883 352.194C241.902 352.194 241.92 352.185 241.938 352.176C241.956 352.168 241.973 352.159 241.991 352.159C244.767 351.792 247.52 350.103 249.904 347.95C249.962 350.436 251.89 352.267 255.029 352.267C259.316 352.267 263.567 348.926 266.691 345.291C266.437 344.781 265.783 344.201 265.275 343.983L265.021 344.275C262.296 347.435 258.808 349.942 256.158 349.942C253.832 349.942 252.451 348.488 254.195 345.437L254.559 344.783C256.991 345.799 261.569 345.328 264.404 340.423L264.949 339.48C266.983 335.991 265.021 333.376 261.934 333.376C258.884 333.376 256.447 334.974 254.851 337.734L251.181 344.028C251.165 344.023 251.149 344.014 251.133 344.006C251.114 343.997 251.096 343.987 251.077 343.982L250.823 344.273C249.494 345.833 247.967 347.213 246.281 348.379C246.752 346.967 246.998 345.259 247.265 343.412V343.412L247.265 343.412C247.678 340.554 248.139 337.364 249.551 334.428L246.718 332.902C246.434 333.292 246.089 333.774 245.693 334.326L245.693 334.326C243.914 336.811 241.12 340.713 238.325 343.982C238.336 343.997 238.348 344.012 238.36 344.028C238.368 344.037 238.376 344.047 238.384 344.056L238.386 344.059L238.387 344.06C238.403 344.08 238.42 344.1 238.435 344.12L238.3 344.273C235.576 347.433 232.924 349.94 231.252 349.94C230.417 349.94 229.945 349.36 230.816 347.87L238.881 333.735H235.102L228.382 345.469C225.512 348.085 223.297 349.538 222.568 349.211C221.692 348.841 222.443 347.593 222.934 346.776L222.935 346.774L222.944 346.759C222.965 346.726 222.984 346.693 223.003 346.661C223.016 346.639 223.029 346.617 223.042 346.596L230.415 333.736H226.637L220.624 344.141L220.59 344.12C220.504 344.067 220.418 344.014 220.337 343.98L220.083 344.27C217.358 347.43 214.707 349.937 213.035 349.937C212.2 349.937 211.728 349.357 212.599 347.867L218.702 337.185H216.558C216.704 335.587 215.07 333.369 212.598 333.369C210.564 333.369 207.73 334.969 206.132 337.729L202.302 344.341C202.126 344.197 201.932 344.075 201.726 343.978L201.472 344.268C198.748 347.428 195.614 349.935 192.962 349.935C190.638 349.935 189.256 348.482 190.999 345.431L194.886 338.675C197.066 334.933 200.917 335.55 198.663 339.473L198.118 340.418H201.208L201.752 339.473C203.786 335.986 201.825 333.369 198.738 333.369C195.686 333.369 193.604 334.969 192.008 337.729L188.252 344.172C188.142 344.098 188.026 344.033 187.905 343.978L187.651 344.268C184.927 347.428 181.704 349.935 179.053 349.935C176.727 349.935 175.346 348.482 177.09 345.431L177.453 344.777C179.887 345.795 184.465 345.322 187.299 340.419L187.844 339.473C189.878 335.987 187.916 333.37 184.828 333.37C181.778 333.37 179.342 334.968 177.745 337.73L173.785 344.522C171.422 348.555 173.458 352.26 177.925 352.26C181.254 352.26 183.938 350.245 186.713 347.643C186.615 350.28 188.571 352.26 191.834 352.26C194.922 352.266 197.634 350.532 200.275 348.206ZM166.454 329.015L163.403 334.246V334.247C167.254 334.174 169.399 333.338 170.849 330.614C172.739 327.053 169.214 324.258 166.454 329.015ZM159.335 351.466C157.082 351.466 155.302 350.958 153.885 350.16C154.539 349.396 155.192 348.451 155.775 347.471L162.131 336.463L163.148 336.571C172.014 338.426 168.489 351.466 159.335 351.466ZM168.672 335.991C176.3 333.41 176.881 323.856 169.361 323.856C167.29 323.856 164.82 325.309 163.113 328.288L152.94 345.872C152.52 346.627 152.034 347.344 151.488 348.013C148.872 344.418 149.635 339.042 153.304 336.679L151.777 334.753C143.857 339.803 146.183 354.37 159.407 354.37C170.707 354.372 175.937 340.824 168.672 335.991Z" fill="white"/>
<path fill-rule="evenodd" clip-rule="evenodd" d="M247.824 84.364V92.1H227.008V47.353H247.824V55.023H234.624V65.827H245.159V73.497H234.624V84.363L247.824 84.364ZM269.17 92.1V84.364L258.573 84.363V47.353H250.957V92.1H269.17ZM375.7 92.1V84.364H362.499V73.497H373.034V65.827H362.499V55.024H375.7V47.353H354.884V92.1H375.7ZM350.459 47.354H342.908L336.115 68.959L329.324 47.354H321.772V92.101H329.389V70.111L332.371 81.489H339.796L342.843 70.111V92.101H350.459V47.354ZM310.999 55.024H305.476V84.364H311L310.999 55.024ZM318.679 52.085C318.679 49.463 316.521 47.354 313.981 47.354L302.557 47.355C299.957 47.355 297.861 49.464 297.861 52.085V87.37C297.861 89.927 299.957 92.1 302.557 92.1H313.981C316.521 92.1 318.679 89.927 318.679 87.37V52.085ZM285.971 75.606L293.649 73.816V87.368C293.649 89.925 291.492 92.098 288.953 92.098H277.528C274.928 92.098 272.833 89.925 272.833 87.368V52.084C272.833 49.462 274.928 47.354 277.528 47.354H288.951C291.491 47.354 293.648 49.462 293.648 52.084V61.161L285.97 62.951V55.023H280.448V84.363H285.97L285.971 75.606ZM223.241 47.354H215.564L214.994 84.364H214.232L209.344 47.354H201.792L197.032 84.364H196.208L195.573 47.354H187.957L189.099 92.1H203.632L205.599 73.626L207.567 92.1H222.037L223.241 47.354Z" fill="#81B3D3"/>
<path fill-rule="evenodd" clip-rule="evenodd" d="M234.774 103.09L231.929 107.967H229.2L228.33 109.401H231.087L225.018 119.784C223.741 121.992 224.642 124.03 227.08 124.03C228.303 124.03 229.618 123.393 230.933 122.409L230.155 123.743H233.201L237.789 115.856C242.433 110.089 244.495 110.836 243.188 113.046L239.268 119.786C237.99 121.996 238.891 124.034 241.329 124.034C243.125 124.034 245.117 122.664 247.022 120.829C247.168 122.686 248.689 124.034 251.112 124.034C254.535 124.034 257.932 121.394 260.428 118.526C260.231 118.123 259.709 117.665 259.302 117.493L259.099 117.719C256.921 120.216 254.135 122.194 252.017 122.194C250.157 122.194 249.053 121.048 250.447 118.639L250.737 118.119C252.683 118.924 256.341 118.55 258.605 114.679L259.042 113.932C260.667 111.179 259.1 109.114 256.632 109.114C254.193 109.114 252.249 110.377 250.972 112.555L248.042 117.52L247.866 117.72C245.689 120.214 243.571 122.192 242.235 122.192C241.569 122.192 241.189 121.732 241.885 120.557L246.24 113.014C247.546 110.749 246.3 109.114 244.616 109.114C243.309 109.114 241.914 109.831 240.406 111.379L245.224 103.09H242.205L233.782 117.528L233.612 117.718C231.436 120.214 229.315 122.192 227.979 122.192C227.312 122.192 226.935 121.732 227.633 120.557L234.105 109.399H236.572L237.444 107.966H234.948L237.793 103.091L234.774 103.09ZM202.465 107.969L205.31 103.094H208.329L205.483 107.967H207.982L207.11 109.403H204.645L198.169 120.561C197.472 121.736 197.85 122.196 198.517 122.196C199.852 122.196 201.974 120.217 204.15 117.721L204.306 117.545L205.543 115.455L207.023 112.902C208.765 109.918 210.563 109.002 212.885 109.002C215.731 109.002 217.414 111.955 215.586 115.082L212.741 119.928C214.252 119.899 215.935 119.184 217.299 117.721L217.504 117.493C217.91 117.665 218.432 118.122 218.632 118.526C217.092 120.332 214.248 121.422 212.448 121.422H211.782C208.513 125.506 203.166 124.763 203.172 120.961C201.306 122.73 199.369 124.034 197.615 124.034C195.177 124.034 194.276 121.996 195.554 119.787L201.622 109.404H198.865L199.735 107.969H202.465ZM213.263 113.967C214.291 112.225 213.825 111.02 212.841 110.93C212.076 110.86 210.998 111.466 210.071 113.022L208.62 115.459L206.326 119.387C204.526 122.484 207.983 122.943 209.405 120.533L209.435 120.477C209.26 120.189 209.144 119.844 209.144 119.473C209.144 118.498 209.927 117.694 210.914 117.694H211.059L213.263 113.967ZM256.575 113.936C257.587 112.192 257.055 111.275 256.086 111.332V111.333C255.334 111.377 254.317 112.011 253.554 113.303L251.608 116.66C252.741 117.062 254.688 117.12 256.138 114.682L256.575 113.936ZM300.404 105.869C298.69 107.389 298.546 109.083 299.621 110.459L299.883 110.803L299.821 110.89C298.492 112.746 296.718 115.225 294.773 117.487L294.775 117.49L294.572 117.719C293.207 119.18 291.526 119.899 290.014 119.928L292.857 115.08C294.687 111.954 293.004 109 290.157 109C287.837 109 286.037 109.918 284.297 112.9L282.813 115.453L281.575 117.545L281.421 117.721C278.924 120.561 276.778 122.392 274.396 123.397L281.159 111.983H279.389C279.389 110.749 278.113 109.113 276.225 109.113C274.601 109.113 272.335 110.378 271.057 112.557L266.819 119.784C265.541 121.992 266.441 124.03 268.879 124.03C269.722 124.03 270.739 123.656 271.756 123.026L270.913 124.43C266.849 125.663 264.293 127.298 264.293 129.536C264.293 132.405 268.735 133.007 270.913 129.336L273.205 125.406C275.621 124.663 277.988 123.259 280.445 120.942C280.424 124.759 285.782 125.509 289.055 121.418H289.723C291.523 121.418 294.368 120.329 295.907 118.522C297.356 116.858 298.487 115.367 300.897 112.127L301.302 112.616C301.679 113.103 301.827 113.706 301.477 114.307L298.284 119.786C297.004 121.996 297.905 124.032 300.345 124.032C301.875 124.032 303.549 123.037 305.187 121.61C305.137 122.996 306.074 124.032 307.806 124.032C308.646 124.032 309.663 123.659 310.68 123.028L309.838 124.43C305.773 125.663 303.222 127.298 303.222 129.536C303.222 132.405 307.662 133.006 309.838 129.336L312.13 125.406C314.59 124.648 317 123.2 319.507 120.807C319.643 122.675 321.165 124.032 323.597 124.032C326.055 124.032 328.496 122.669 330.601 120.842C330.484 124.747 335.911 125.545 339.213 121.42H339.881C340.826 121.42 342.056 121.112 343.238 120.567C342.425 122.64 343.172 124.032 344.899 124.032C346.555 124.032 348.412 122.54 349.863 121.164C349.573 122.769 350.53 124.032 352.447 124.032C354.943 124.032 357.817 121.395 360.315 118.526L360.313 118.524C361.668 116.98 362.896 115.348 363.883 114.038L363.883 114.038C364.143 113.692 364.387 113.369 364.611 113.076C364.211 114.116 364.017 115.435 363.827 116.728C363.452 119.283 363.091 121.736 361.185 121.736C360.169 121.736 359.765 120.646 359.765 120.646L357.875 121.621C357.875 121.621 358.426 124.033 361.185 124.033C361.453 124.033 361.697 124.007 361.959 123.98L362.025 123.973C362.04 123.973 362.055 123.966 362.071 123.959C362.086 123.953 362.101 123.946 362.116 123.946C365.192 123.546 368.24 121.136 370.504 118.526C370.331 118.067 369.808 117.608 369.374 117.492L369.171 117.721C368.106 118.953 366.886 120.042 365.541 120.961C365.916 119.847 366.113 118.5 366.326 117.043C366.657 114.785 367.025 112.265 368.155 109.947L365.891 108.742C365.66 109.055 365.379 109.443 365.056 109.888C363.633 111.851 361.41 114.918 359.185 117.49V117.492L358.982 117.721C356.806 120.217 354.687 122.193 353.351 122.193C352.684 122.193 352.306 121.734 353.004 120.559L359.448 109.401H356.428L351.058 118.666C348.765 120.73 346.996 121.878 346.414 121.619C345.714 121.328 346.313 120.343 346.705 119.699C346.736 119.649 346.765 119.601 346.792 119.555L352.685 109.403H349.665L344.931 117.495L344.732 117.721C343.368 119.184 341.685 119.901 340.174 119.931L343.019 115.082C344.847 111.955 343.169 109.002 340.32 109.002C337.997 109.002 336.197 109.92 334.456 112.905L332.974 115.455L331.737 117.545L331.582 117.723C329.406 120.219 326.618 122.196 324.499 122.196C322.641 122.196 321.539 121.05 322.932 118.641L323.222 118.123C325.166 118.927 328.826 118.553 331.089 114.68L331.527 113.934C333.15 111.18 331.585 109.115 329.117 109.115C326.677 109.115 324.73 110.38 323.454 112.559L320.528 117.524L320.353 117.721C317.854 120.561 315.708 122.394 313.325 123.399L320.089 111.983H318.317C318.317 110.749 317.04 109.115 315.153 109.115C313.528 109.115 311.264 110.378 309.986 112.557L307.09 117.494L307.082 117.49L306.879 117.72C304.703 120.215 302.581 122.194 301.245 122.194C300.578 122.194 300.203 121.734 300.899 120.559L303.917 115.339C304.962 113.532 304.468 112.469 303.48 111.293L301.797 109.283C301.362 108.738 301.362 108.137 301.972 107.563L300.404 105.869ZM290.534 113.967C291.561 112.225 291.094 111.019 290.11 110.929V110.93C289.346 110.86 288.27 111.466 287.342 113.022L285.889 115.459L283.597 119.387C281.797 122.484 285.253 122.943 286.675 120.533L286.703 120.477C286.529 120.189 286.413 119.844 286.413 119.473C286.413 118.498 287.197 117.694 288.183 117.694H288.33L290.534 113.967ZM340.268 110.929C341.252 111.019 341.721 112.225 340.694 113.967L338.488 117.694H338.341C337.355 117.694 336.573 118.498 336.573 119.473C336.573 119.844 336.689 120.189 336.862 120.477L336.832 120.533C335.411 122.943 331.957 122.484 333.757 119.387L336.049 115.459L337.5 113.022C338.427 111.466 339.503 110.86 340.268 110.93V110.929ZM329.053 113.936C330.065 112.193 329.536 111.277 328.568 111.334V111.335C327.816 111.379 326.798 112.013 326.036 113.305L324.088 116.66C325.221 117.062 327.167 117.12 328.618 114.682L329.053 113.936ZM276.165 111.535C277.188 111.529 277.843 112.419 277.01 113.935L274.718 117.895C272.888 120.792 271.058 122.195 269.78 122.195C269.113 122.195 268.735 121.736 269.431 120.561L273.643 113.305C274.353 112.088 275.37 111.54 276.165 111.535ZM315.933 113.935C316.766 112.419 316.111 111.529 315.088 111.535C314.293 111.54 313.276 112.088 312.566 113.305L308.356 120.561C307.662 121.736 308.038 122.195 308.705 122.195C309.981 122.195 311.813 120.792 313.641 117.895L315.933 113.935ZM269.75 126.443L269.749 126.444C267.459 127.332 266.732 128.22 266.732 128.994C266.732 129.797 267.748 129.968 268.386 128.85L269.749 126.444L269.75 126.444V126.443ZM308.674 126.444L308.675 126.443V126.444L308.674 126.444ZM308.674 126.444L307.313 128.85C306.673 129.968 305.657 129.797 305.657 128.994C305.657 128.22 306.383 127.332 308.674 126.444ZM154.025 114.831H182.947V116.781H154.025V114.831ZM409.977 114.831H381.055V116.781H409.977V114.831Z" fill="#766458"/>
</g>
<defs>
<clipPath id="clip0">
<rect width="548" height="398" fill="white"/>
</clipPath>
</defs>
</svg>
